<svg version="1.1" id="Layer_1" xmlns="http://www.w3.org/2000/svg" xmlns:xlink="http://www.w3.org/1999/xlink" x="0px" y="0px"
	 width="100%" viewBox="0 0 1024 1024" enable-background="new 0 0 1024 1024" xml:space="preserve">
<path fill="#000000" opacity="1.000000" stroke="none" 
	d="
M289.842682,283.076538 
	C362.557648,328.941925 434.983948,374.583771 507.304016,420.393311 
	C511.452637,423.021179 514.345337,422.936218 518.437805,420.345734 
	C579.239685,381.859009 640.155396,343.552155 701.028259,305.177582 
	C720.473022,292.919525 739.854736,280.561462 759.298218,268.301392 
	C768.842163,262.283447 775.774719,264.060333 781.258484,273.788391 
	C783.220459,277.268982 785.423828,280.644379 787.049988,284.276825 
	C790.256470,291.439636 787.924438,298.210449 781.300110,302.402557 
	C742.317688,327.072266 703.356567,351.775635 664.377930,376.451324 
	C622.589905,402.905487 580.838135,429.417664 538.937622,455.692627 
	C533.467896,459.122620 531.142639,462.776520 531.163574,469.600891 
	C531.443542,561.092285 531.350891,652.584839 531.346680,744.077087 
	C531.346130,756.150696 527.173584,760.345825 515.174866,760.374512 
	C512.841736,760.380127 510.508453,760.389160 508.175476,760.369446 
	C499.457489,760.295715 494.552856,755.851013 493.739502,747.198975 
	C493.568604,745.380554 493.665619,743.535522 493.665558,741.702759 
	C493.662811,650.543762 493.610443,559.384644 493.787842,468.226044 
	C493.798981,462.514343 492.014618,459.149567 487.210419,456.111542 
	C420.345978,413.828979 353.590729,371.373749 286.816956,328.947937 
	C272.901520,320.106537 258.975647,311.280304 245.137665,302.318848 
	C237.069336,297.093811 235.565247,290.735840 240.116043,282.220215 
	C241.842987,278.988678 243.657394,275.800232 245.534454,272.653290 
	C250.247665,264.751556 257.575165,262.815826 265.484222,267.636322 
	C273.588226,272.575623 281.522400,277.793518 289.842682,283.076538 
z"/>
<path fill="#000000" opacity="1.000000" stroke="none" 
	d="
M355.675018,480.386047 
	C309.255524,450.606567 263.125214,421.044922 217.051682,391.395020 
	C209.039612,386.238983 207.477692,379.464722 211.988602,371.252014 
	C213.832764,367.894440 215.738297,364.567749 217.710907,361.284058 
	C222.601776,353.142578 229.859756,351.527618 238.119232,356.792206 
	C254.551147,367.265900 270.925171,377.830536 287.368103,388.286774 
	C343.726898,424.125824 400.080841,459.972687 456.510956,495.699097 
	C462.614197,499.563110 465.407654,504.568390 465.399719,511.774048 
	C465.314392,589.103271 465.353333,666.432678 465.343903,743.762024 
	C465.342499,755.162415 460.229034,760.323425 448.953766,760.361023 
	C445.122437,760.373840 441.242371,760.652954 437.469482,760.160217 
	C429.976074,759.181519 425.667236,753.585876 425.661469,745.313904 
	C425.638184,711.982300 425.651031,678.650635 425.650757,645.319031 
	C425.650452,607.320984 425.582336,569.322632 425.744080,531.325317 
	C425.762451,527.010498 424.585419,524.372742 420.827484,522.008179 
	C399.117645,508.347992 377.579651,494.414764 355.675018,480.386047 
z"/>
<path fill="#000000" opacity="1.000000" stroke="none" 
	d="
M627.313354,459.274780 
	C680.974487,425.054474 734.337952,391.042267 787.693604,357.017792 
	C796.601074,351.337555 803.580078,353.077698 808.874817,362.358765 
	C810.606567,365.394409 812.406982,368.392181 814.081482,371.458893 
	C818.413635,379.392944 816.773193,386.499634 809.258972,391.338165 
	C782.934570,408.288910 756.562134,425.165039 730.197205,442.052795 
	C690.513977,467.471466 651.026917,493.207458 610.967285,518.018616 
	C602.521057,523.249756 600.060974,528.695496 600.119385,538.197876 
	C600.538086,606.343323 600.348938,674.492554 600.344910,742.640564 
	C600.344177,755.559204 595.517517,760.347473 582.533203,760.364990 
	C579.700684,760.368835 576.865356,760.433289 574.036133,760.333740 
	C566.239441,760.059326 560.956177,754.787415 560.664795,747.066467 
	C560.627075,746.068115 560.651733,745.067200 560.651733,744.067505 
	C560.651367,666.755310 560.712952,589.443054 560.555542,512.131165 
	C560.539856,504.431549 563.404968,499.369476 569.909912,495.374451 
	C589.067017,483.609070 607.995239,471.470947 627.313354,459.274780 
z"/>
</svg>